<mxfile host="app.diagrams.net" agent="Mozilla/5.0 (X11; Linux x86_64) AppleWebKit/537.36 (KHTML, like Gecko) Chrome/134.0.0.0 Safari/537.36" version="25.0.3">
  <diagram name="Page-1" id="7mBDFV7ul7bf9DqnTRkD">
    <mxGraphModel dx="971" dy="664" grid="1" gridSize="10" guides="1" tooltips="1" connect="1" arrows="1" fold="1" page="1" pageScale="1" pageWidth="850" pageHeight="1100" math="0" shadow="0">
      <root>
        <mxCell id="0" />
        <mxCell id="1" parent="0" />
        <mxCell id="ikuOInhjQRcV3hgEfLkc-1" value="Screen" style="rounded=1;whiteSpace=wrap;html=1;" vertex="1" parent="1">
          <mxGeometry x="120" y="160" width="120" height="60" as="geometry" />
        </mxCell>
        <mxCell id="ikuOInhjQRcV3hgEfLkc-3" style="edgeStyle=orthogonalEdgeStyle;rounded=0;orthogonalLoop=1;jettySize=auto;html=1;exitX=0.5;exitY=0;exitDx=0;exitDy=0;entryX=0.5;entryY=1;entryDx=0;entryDy=0;" edge="1" parent="1" source="ikuOInhjQRcV3hgEfLkc-2" target="ikuOInhjQRcV3hgEfLkc-1">
          <mxGeometry relative="1" as="geometry" />
        </mxCell>
        <mxCell id="ikuOInhjQRcV3hgEfLkc-4" value="VGA" style="edgeLabel;html=1;align=center;verticalAlign=middle;resizable=0;points=[];" vertex="1" connectable="0" parent="ikuOInhjQRcV3hgEfLkc-3">
          <mxGeometry x="0.1937" y="1" relative="1" as="geometry">
            <mxPoint x="1" y="4" as="offset" />
          </mxGeometry>
        </mxCell>
        <mxCell id="ikuOInhjQRcV3hgEfLkc-7" style="edgeStyle=orthogonalEdgeStyle;rounded=0;orthogonalLoop=1;jettySize=auto;html=1;exitX=1;exitY=0.5;exitDx=0;exitDy=0;" edge="1" parent="1" source="ikuOInhjQRcV3hgEfLkc-2">
          <mxGeometry relative="1" as="geometry">
            <mxPoint x="340" y="290" as="targetPoint" />
          </mxGeometry>
        </mxCell>
        <mxCell id="ikuOInhjQRcV3hgEfLkc-2" value="FPGA" style="rounded=1;whiteSpace=wrap;html=1;" vertex="1" parent="1">
          <mxGeometry x="120" y="260" width="120" height="60" as="geometry" />
        </mxCell>
        <mxCell id="ikuOInhjQRcV3hgEfLkc-6" style="edgeStyle=orthogonalEdgeStyle;rounded=0;orthogonalLoop=1;jettySize=auto;html=1;exitX=0;exitY=0.5;exitDx=0;exitDy=0;entryX=1;entryY=0.5;entryDx=0;entryDy=0;" edge="1" parent="1" source="ikuOInhjQRcV3hgEfLkc-5" target="ikuOInhjQRcV3hgEfLkc-2">
          <mxGeometry relative="1" as="geometry" />
        </mxCell>
        <mxCell id="ikuOInhjQRcV3hgEfLkc-8" value="SPI" style="edgeLabel;html=1;align=center;verticalAlign=middle;resizable=0;points=[];" vertex="1" connectable="0" parent="ikuOInhjQRcV3hgEfLkc-6">
          <mxGeometry x="0.0873" y="-3" relative="1" as="geometry">
            <mxPoint x="4" y="3" as="offset" />
          </mxGeometry>
        </mxCell>
        <mxCell id="ikuOInhjQRcV3hgEfLkc-13" style="edgeStyle=orthogonalEdgeStyle;rounded=0;orthogonalLoop=1;jettySize=auto;html=1;exitX=1;exitY=0.5;exitDx=0;exitDy=0;entryX=0;entryY=0.5;entryDx=0;entryDy=0;dashed=1;" edge="1" parent="1" source="ikuOInhjQRcV3hgEfLkc-5" target="ikuOInhjQRcV3hgEfLkc-12">
          <mxGeometry relative="1" as="geometry" />
        </mxCell>
        <mxCell id="ikuOInhjQRcV3hgEfLkc-5" value="ESP32" style="rounded=1;whiteSpace=wrap;html=1;" vertex="1" parent="1">
          <mxGeometry x="340" y="260" width="120" height="60" as="geometry" />
        </mxCell>
        <mxCell id="ikuOInhjQRcV3hgEfLkc-10" style="edgeStyle=orthogonalEdgeStyle;rounded=0;orthogonalLoop=1;jettySize=auto;html=1;exitX=0.5;exitY=0;exitDx=0;exitDy=0;entryX=0.5;entryY=1;entryDx=0;entryDy=0;" edge="1" parent="1" source="ikuOInhjQRcV3hgEfLkc-9" target="ikuOInhjQRcV3hgEfLkc-2">
          <mxGeometry relative="1" as="geometry" />
        </mxCell>
        <mxCell id="ikuOInhjQRcV3hgEfLkc-11" value="PS2" style="edgeLabel;html=1;align=center;verticalAlign=middle;resizable=0;points=[];" vertex="1" connectable="0" parent="ikuOInhjQRcV3hgEfLkc-10">
          <mxGeometry x="-0.2563" relative="1" as="geometry">
            <mxPoint y="-5" as="offset" />
          </mxGeometry>
        </mxCell>
        <mxCell id="ikuOInhjQRcV3hgEfLkc-9" value="Gamepad" style="rounded=1;whiteSpace=wrap;html=1;" vertex="1" parent="1">
          <mxGeometry x="120" y="360" width="120" height="60" as="geometry" />
        </mxCell>
        <mxCell id="ikuOInhjQRcV3hgEfLkc-14" style="edgeStyle=orthogonalEdgeStyle;rounded=0;orthogonalLoop=1;jettySize=auto;html=1;exitX=0;exitY=0.5;exitDx=0;exitDy=0;dashed=1;entryX=1;entryY=0.5;entryDx=0;entryDy=0;" edge="1" parent="1" source="ikuOInhjQRcV3hgEfLkc-12" target="ikuOInhjQRcV3hgEfLkc-5">
          <mxGeometry relative="1" as="geometry">
            <mxPoint x="470" y="270" as="targetPoint" />
          </mxGeometry>
        </mxCell>
        <mxCell id="ikuOInhjQRcV3hgEfLkc-15" value="UDP" style="edgeLabel;html=1;align=center;verticalAlign=middle;resizable=0;points=[];" vertex="1" connectable="0" parent="ikuOInhjQRcV3hgEfLkc-14">
          <mxGeometry x="0.1307" relative="1" as="geometry">
            <mxPoint x="12" as="offset" />
          </mxGeometry>
        </mxCell>
        <mxCell id="ikuOInhjQRcV3hgEfLkc-12" value="Server" style="rounded=1;whiteSpace=wrap;html=1;" vertex="1" parent="1">
          <mxGeometry x="570" y="260" width="120" height="60" as="geometry" />
        </mxCell>
      </root>
    </mxGraphModel>
  </diagram>
</mxfile>
